{
 "cells": [
  {
   "cell_type": "code",
   "execution_count": 38,
   "id": "5ba9f6a0-b410-4538-80fa-b1f57ce4b578",
   "metadata": {},
   "outputs": [],
   "source": [
    "import shutil\n",
    "import os\n",
    "import ffmpeg\n",
    "\n",
    "results = os.path.join('results')\n",
    "\n",
    "def create_video(source):\n",
    "    images = os.path.join(results, f'result_{source}', 'video')\n",
    "    output = os.path.join(results, f'{source}.mp4')\n",
    "    \n",
    "    ffmpeg.input(os.path.join(images, '*.png'), pattern_type='glob', framerate=2) \\\n",
    "        .output(output, pix_fmt='yuv420p', vcodec='libx264').run()\n",
    "    \n",
    "    \n",
    "def fix_filenames(root):\n",
    "    for entry in os.scandir(root):\n",
    "        if entry.name.startswith(\"gen\"):\n",
    "            try:\n",
    "                tokens = entry.name.split('.')\n",
    "                name = tokens[0].split('gen')[1]\n",
    "                ext = tokens[1]\n",
    "                if name.isdigit():\n",
    "                    name = f'gen{name.zfill(6)}.{ext}'\n",
    "                    dirname = os.path.dirname(entry.path)\n",
    "                    rename = os.path.join(dirname, name)\n",
    "                    os.rename(entry.path, rename)\n",
    "\n",
    "            except:\n",
    "                pass\n",
    "            \n",
    "def fix_source(source):\n",
    "    root = os.path.join(results, f'result_{source}')\n",
    "    vidims = os.path.join(root, 'video') \n",
    "    \n",
    "    fix_filenames(root)\n",
    "    fix_filenames(vidims)"
   ]
  },
  {
   "cell_type": "code",
   "execution_count": 41,
   "id": "07564803-32c1-448c-8f2c-758a08c8baeb",
   "metadata": {},
   "outputs": [
    {
     "name": "stderr",
     "output_type": "stream",
     "text": [
      "ffmpeg version 4.4.1 Copyright (c) 2000-2021 the FFmpeg developers\n",
      "  built with Apple clang version 13.0.0 (clang-1300.0.29.3)\n",
      "  configuration: --prefix=/usr/local/Cellar/ffmpeg/4.4.1_5 --enable-shared --enable-pthreads --enable-version3 --cc=clang --host-cflags= --host-ldflags= --enable-ffplay --enable-gnutls --enable-gpl --enable-libaom --enable-libbluray --enable-libdav1d --enable-libmp3lame --enable-libopus --enable-librav1e --enable-librist --enable-librubberband --enable-libsnappy --enable-libsrt --enable-libtesseract --enable-libtheora --enable-libvidstab --enable-libvmaf --enable-libvorbis --enable-libvpx --enable-libwebp --enable-libx264 --enable-libx265 --enable-libxml2 --enable-libxvid --enable-lzma --enable-libfontconfig --enable-libfreetype --enable-frei0r --enable-libass --enable-libopencore-amrnb --enable-libopencore-amrwb --enable-libopenjpeg --enable-libspeex --enable-libsoxr --enable-libzmq --enable-libzimg --disable-libjack --disable-indev=jack --enable-avresample --enable-videotoolbox\n",
      "  libavutil      56. 70.100 / 56. 70.100\n",
      "  libavcodec     58.134.100 / 58.134.100\n",
      "  libavformat    58. 76.100 / 58. 76.100\n",
      "  libavdevice    58. 13.100 / 58. 13.100\n",
      "  libavfilter     7.110.100 /  7.110.100\n",
      "  libavresample   4.  0.  0 /  4.  0.  0\n",
      "  libswscale      5.  9.100 /  5.  9.100\n",
      "  libswresample   3.  9.100 /  3.  9.100\n",
      "  libpostproc    55.  9.100 / 55.  9.100\n",
      "Input #0, image2, from 'temp/results/result_three/video/*.png':\n",
      "  Duration: 00:01:01.00, start: 0.000000, bitrate: N/A\n",
      "  Stream #0:0: Video: png, rgb24(pc), 800x800, 2 fps, 2 tbr, 2 tbn, 2 tbc\n",
      "Stream mapping:\n",
      "  Stream #0:0 -> #0:0 (png (native) -> h264 (libx264))\n",
      "Press [q] to stop, [?] for help\n",
      "[libx264 @ 0x7fb877816800] using cpu capabilities: MMX2 SSE2Fast SSSE3 SSE4.2 AVX FMA3 BMI2 AVX2\n",
      "[libx264 @ 0x7fb877816800] profile High, level 3.1, 4:2:0, 8-bit\n",
      "[libx264 @ 0x7fb877816800] 264 - core 163 r3060 5db6aa6 - H.264/MPEG-4 AVC codec - Copyleft 2003-2021 - http://www.videolan.org/x264.html - options: cabac=1 ref=3 deblock=1:0:0 analyse=0x3:0x113 me=hex subme=7 psy=1 psy_rd=1.00:0.00 mixed_ref=1 me_range=16 chroma_me=1 trellis=1 8x8dct=1 cqm=0 deadzone=21,11 fast_pskip=1 chroma_qp_offset=-2 threads=6 lookahead_threads=1 sliced_threads=0 nr=0 decimate=1 interlaced=0 bluray_compat=0 constrained_intra=0 bframes=3 b_pyramid=2 b_adapt=1 b_bias=0 direct=1 weightb=1 open_gop=0 weightp=2 keyint=250 keyint_min=2 scenecut=40 intra_refresh=0 rc_lookahead=40 rc=crf mbtree=1 crf=23.0 qcomp=0.60 qpmin=0 qpmax=69 qpstep=4 ip_ratio=1.40 aq=1:1.00\n",
      "Output #0, mp4, to 'temp/videos/three.mp4':\n",
      "  Metadata:\n",
      "    encoder         : Lavf58.76.100\n",
      "  Stream #0:0: Video: h264 (avc1 / 0x31637661), yuv420p(tv, progressive), 800x800, q=2-31, 2 fps, 16384 tbn\n",
      "    Metadata:\n",
      "      encoder         : Lavc58.134.100 libx264\n",
      "    Side data:\n",
      "      cpb: bitrate max/min/avg: 0/0/0 buffer size: 0 vbv_delay: N/A\n",
      "frame=  122 fps= 90 q=-1.0 Lsize=      78kB time=00:00:59.50 bitrate=  10.7kbits/s speed=44.1x    \n",
      "video:76kB audio:0kB subtitle:0kB other streams:0kB global headers:0kB muxing overhead: 2.218721%\n",
      "[libx264 @ 0x7fb877816800] frame I:1     Avg QP: 3.26  size:  2727\n",
      "[libx264 @ 0x7fb877816800] frame P:89    Avg QP: 3.92  size:   721\n",
      "[libx264 @ 0x7fb877816800] frame B:32    Avg QP:21.62  size:   326\n",
      "[libx264 @ 0x7fb877816800] consecutive B-frames: 63.1%  4.9%  2.5% 29.5%\n",
      "[libx264 @ 0x7fb877816800] mb I  I16..4: 97.5%  0.5%  2.0%\n",
      "[libx264 @ 0x7fb877816800] mb P  I16..4: 10.7%  0.7%  0.2%  P16..4:  1.4%  0.4%  0.2%  0.0%  0.0%    skip:86.5%\n",
      "[libx264 @ 0x7fb877816800] mb B  I16..4:  0.0%  0.0%  0.0%  B16..8:  1.3%  0.1%  0.1%  direct: 0.0%  skip:98.4%  L0:46.2% L1:52.9% BI: 0.9%\n",
      "[libx264 @ 0x7fb877816800] 8x8 transform intra:5.5% inter:28.1%\n",
      "[libx264 @ 0x7fb877816800] coded y,uvDC,uvAC intra: 0.6% 0.8% 0.8% inter: 0.2% 0.2% 0.2%\n",
      "[libx264 @ 0x7fb877816800] i16 v,h,dc,p: 85% 14%  1%  0%\n",
      "[libx264 @ 0x7fb877816800] i8 v,h,dc,ddl,ddr,vr,hd,vl,hu:  3%  2% 95%  0%  0%  0%  0%  0%  0%\n",
      "[libx264 @ 0x7fb877816800] i4 v,h,dc,ddl,ddr,vr,hd,vl,hu: 37% 29% 25%  2%  1%  1%  1%  2%  1%\n",
      "[libx264 @ 0x7fb877816800] i8c dc,h,v,p: 99%  0%  0%  0%\n",
      "[libx264 @ 0x7fb877816800] Weighted P-Frames: Y:0.0% UV:0.0%\n",
      "[libx264 @ 0x7fb877816800] ref P L0: 49.7%  0.7% 37.6% 12.0%\n",
      "[libx264 @ 0x7fb877816800] ref B L0: 87.3% 10.7%  2.0%\n",
      "[libx264 @ 0x7fb877816800] ref B L1: 99.1%  0.9%\n",
      "[libx264 @ 0x7fb877816800] kb/s:10.15\n"
     ]
    }
   ],
   "source": [
    "#fix_source('house')\n",
    "\n",
    "#create_video('bird')\n",
    "#create_video('heart')\n",
    "#create_video('house')\n",
    "#create_video('owl')\n",
    "#create_video('pointer')\n",
    "create_video('three')"
   ]
  },
  {
   "cell_type": "code",
   "execution_count": null,
   "id": "008b2af4-2ded-4bc2-95ef-bffd20bbdbe7",
   "metadata": {},
   "outputs": [],
   "source": []
  }
 ],
 "metadata": {
  "kernelspec": {
   "display_name": "Python 3 (ipykernel)",
   "language": "python",
   "name": "python3"
  },
  "language_info": {
   "codemirror_mode": {
    "name": "ipython",
    "version": 3
   },
   "file_extension": ".py",
   "mimetype": "text/x-python",
   "name": "python",
   "nbconvert_exporter": "python",
   "pygments_lexer": "ipython3",
   "version": "3.10.4"
  }
 },
 "nbformat": 4,
 "nbformat_minor": 5
}
